# xmcd
#
# Track frame offsets: 
#        150
#        12036
#        31265
#        47604
#        57435
#        67983
#        79763
#        92154
#        106295
#        125700
#
# Disc length: 1874 seconds
#
# Revision: 7
# Processed by: cddbd v1.5.2PL0 Copyright (c) Steve Scherf et al.
# Submitted via: ExactAudioCopy v1.3
#
DISCID=7a07500a
DTITLE=Hank Williams, Jr. - America (The Way I See It)
DYEAR=1990
DGENRE=Country
TTITLE0=Don't Give Us a Reason
TTITLE1=Mr. Lincoln
TTITLE2=I've Got Rights
TTITLE3=The Coalition to Ban Coalitions
TTITLE4=All My Rowdy Friends Are Coming Over For Monday Night Football
TTITLE5=Give a Damn
TTITLE6=Practice What I Preach
TTITLE7=The American Way
TTITLE8=A Country Boy Can Survive
TTITLE9=U.S.A. Today
EXTD=
EXTT0=
EXTT1=
EXTT2=
EXTT3=
EXTT4=
EXTT5=
EXTT6=
EXTT7=
EXTT8=
EXTT9=
PLAYORDER=
